inDegrees=no
nColumns=24
nRows=25
DataType=double
version=3
OpenSimVersion=4.5
endheader
time	pelvis_tilt	pelvis_list	pelvis_rotation	pelvis_tz	pelvis_ty	pelvis_tx	hip_flexion_r	hip_adduction_r	hip_rotation_r	knee_angle_r	ankle_angle_r	subtalar_angle_r	mtp_angle_r	hip_flexion_l	hip_adduction_l	hip_rotation_l	knee_angle_l	ankle_angle_l	subtalar_angle_l	mtp_angle_l	lumbar_extension	lumbar_bending	lumbar_rotation
0.5800000000000001	-0.008868217793856459	0.08392892718826481	0.004004855356351021	-0.03760076999999998	0.9340131700000001	0.65952655	0.51509062326766	-0.0920664526223185	-0.2326563932506811	-0.3026544347134779	-0.09339675933334939	-0.1002496752607843	0	-0.2633719971739713	0.1063183632680852	-0.3605509459083833	-0.2253842103160749	0.2205912726453814	-0.01622062022540066	0	-0.103077829819062	-0.08187052676242836	-0.06750555438584914
0.5899999999999999	-0.01266702136899759	0.0711927698553524	0.004380514706905714	-0.03594778999999998	0.93476963	0.67244083	0.5122539052514075	-0.07929870225367279	-0.2320282756073601	-0.3141723970417384	-0.1150084604136579	-0.1063260062394126	0	-0.2576200480286638	0.08529314098753411	-0.3610439218350578	-0.254276857454631	0.1999758267951281	-0.01762323994159896	0	-0.09470265429866556	-0.06710262226421305	-0.06413449491791924
0.6000000000000001	-0.01209560755934089	0.06546522387220821	0.004493720991890729	-0.03406357999999998	0.9359477900000001	0.68549267	0.5071966086675667	-0.07435543326585264	-0.2318917376273119	-0.3342289331385658	-0.1237154886492384	-0.1086134686164639	0	-0.2541307803775561	0.07050585303717911	-0.3628624884185914	-0.2872166805277959	0.1746317754122781	-0.0178492522257506	0	-0.09234491362128888	-0.06254485270039424	-0.06073797476139418
0.6099999999999999	-0.01356397474373532	0.05800848031538179	0.00538325949382168	-0.03242703999999999	0.93716292	0.6987869800000001	0.5020824551908155	-0.06823691104695247	-0.2353049878119149	-0.3504140987455414	-0.1160103588167836	-0.120618983784347	0	-0.2475078808686427	0.05412885061266806	-0.3650340811791296	-0.3201177764901884	0.140522000720169	-0.02263984225406722	0	-0.08664771911980787	-0.05500392902902073	-0.05885157246582333
0.6200000000000001	-0.01567569588042066	0.04943633012235784	0.006560905645532914	-0.03091387999999998	0.93838679	0.7119668100000001	0.4980604301488596	-0.06040317139257677	-0.2370074910473884	-0.3675936634249128	-0.1006932674453395	-0.1376095781749465	0	-0.237026454747843	0.03635637594431147	-0.3646855652819779	-0.3573879635466786	0.1045397621064284	-0.03156620566767995	0	-0.08070865898498061	-0.04464819244523757	-0.05869318645419872
0.6299999999999999	-0.01490685150736972	0.04267509556739265	0.006073676288759579	-0.02882135	0.93970602	0.72496213	0.4898521861211714	-0.052316267715942	-0.2381346611557077	-0.383845938512424	-0.08021979557762259	-0.1443377004428699	0	-0.2246409852415251	0.01820765663484518	-0.3706238136641701	-0.4026963831556179	0.06720210672970843	-0.03965828092942129	0	-0.07861266411379504	-0.03920471017393369	-0.05570639473141702
0.6400000000000001	-0.01678944791926163	0.03365152493302847	0.005649068988103339	-0.02681960999999999	0.94086803	0.73750769	0.482997439692417	-0.0419954291650854	-0.2401631702533711	-0.398328197538336	-0.05541747048358092	-0.1496596114560603	0	-0.2046331893839218	-0.004111177158279454	-0.3788732272163861	-0.4545908191030527	0.0227466399981943	-0.04878899307691113	0	-0.07500750712395365	-0.02946680356472863	-0.05361752411970516
0.6499999999999999	-0.02035027108106334	0.02336156417828124	0.00552920334855889	-0.02464533999999999	0.94198322	0.7497926100000001	0.4750437119680922	-0.03034052044973182	-0.2456037400937522	-0.4066702280345066	-0.03435251525900943	-0.1533010164910047	0	-0.1793735246704057	-0.02997117230262845	-0.3902482770985714	-0.5093945145355067	-0.02914494635017081	-0.0612318081683302	0	-0.06986630854871233	-0.02033783255770059	-0.05098121894533344
0.6600000000000001	-0.02436375818049666	0.01140701175779456	0.004573834543366584	-0.02242580999999999	0.94286894	0.7617073600000001	0.4665691917830735	-0.01708609287314913	-0.2544369355629654	-0.4122026899836039	-0.01771867192710413	-0.150625170882429	0	-0.1521121676686503	-0.05781033922827958	-0.3994472660028004	-0.5638687403253374	-0.08102382827237774	-0.07945862642396719	0	-0.06437694087324181	-0.008343717356892662	-0.0445435931178363
0.6699999999999999	-0.03144693344392736	-0.001997286612065384	0.004886919138649673	-0.02040918999999999	0.94345457	0.77358665	0.4586096433856933	-0.002731062939186844	-0.2675053185462012	-0.4120614012173318	0.003927572360694007	-0.1430566181253977	0	-0.1199364537562658	-0.08820250763576934	-0.4051881080472812	-0.6195069008860489	-0.1341250688149785	-0.1010113381680851	0	-0.05542378491028171	0.005136579735908848	-0.04020133279579648
0.6799999999999997	-0.0375710974252281	-0.01247062649304382	0.005616309738784495	-0.01867222999999998	0.94416009	0.78467931	0.4501905485745326	0.008185539737580743	-0.2806238560089542	-0.4108263367745165	0.01905204553069664	-0.1351492524546583	0	-0.08575615257801163	-0.1130991429922059	-0.4012140640263248	-0.677271090467313	-0.1782883758072892	-0.1248896609979127	0	-0.0497681280232677	0.01568626917441253	-0.03657287199524952
0.6899999999999999	-0.04364927566848679	-0.02159060266556967	0.007178442362023952	-0.01718454	0.94492299	0.79537588	0.4405372614615837	0.01845688040178493	-0.2896092274337805	-0.4063736135169204	0.03302834861628705	-0.1292794352908442	0	-0.04972539119307167	-0.1340676015804285	-0.3919746765094986	-0.7334458933472547	-0.2190200087448799	-0.1481310060204714	0	-0.04464113660267054	0.02440952722670727	-0.03267986605492419
0.6999999999999997	-0.0526580680324831	-0.02764889617099452	0.009910771635416078	-0.01610597999999999	0.94552039	0.80546016	0.4342147435889141	0.02553554070533129	-0.2950290720128929	-0.3997443925999892	0.03946714538517934	-0.1243897896244293	0	-0.006574058389658457	-0.1479272835107299	-0.3728217064421407	-0.7895111593633413	-0.2671284073638502	-0.1833366106416535	0	-0.03820487544811554	0.03102630010634734	-0.03359574066987761
0.71	-0.05973184086103261	-0.03191549808489369	0.01171791840738988	-0.01503859999999999	0.94626122	0.8155599800000001	0.4267210237434242	0.03111158562024605	-0.2987730791949755	-0.3953283395826422	0.05134057019554723	-0.123625241687875	0	0.03524030962069336	-0.1587548759664421	-0.3562702004139616	-0.8423738339920794	-0.2985814657795844	-0.2285649489594576	0	-0.03326112195689505	0.03443893244439512	-0.02980403049774537
0.7199999999999998	-0.06832807794625981	-0.03531457507690041	0.01374327772198457	-0.01399814999999999	0.94694062	0.82563224	0.4207413536366274	0.03686094033362045	-0.2980598174094252	-0.3900152986817763	0.06177405718324946	-0.1260456185669143	0	0.0787227460439756	-0.1677339402949505	-0.3411560119456423	-0.8925947548775872	-0.303506608301392	-0.2690547914873929	0	-0.02628482451584646	0.03680212622848673	-0.02643407006364545
0.73	-0.07257116207144718	-0.04019400492665017	0.0146582417579719	-0.01294157999999998	0.94792389	0.8355094200000001	0.4107481114665079	0.04494799201417577	-0.2935454102018063	-0.3855081612940907	0.07048982445692757	-0.1319297053681599	0	0.1176948645660764	-0.1779694884449865	-0.328281087016284	-0.9407710865979672	-0.2739857951738946	-0.2927527233689196	0	-0.02514940074549448	0.04095224761649764	-0.02088579124273482
0.7399999999999998	-0.07233878352211071	-0.04120744154373174	0.01420413338475416	-0.01200187999999999	0.94945415	0.84532861	0.3951367382100228	0.04980591771769896	-0.2870433766634558	-0.3795025308109339	0.08180074029588613	-0.1369869529082486	0	0.150522918150207	-0.1825665294877715	-0.3178496834281099	-0.9819819092810037	-0.2405885603991572	-0.3175275862307799	0	-0.02966836535685615	0.04061229081399786	-0.01060223100483864
0.75	-0.07434683508129622	-0.04231783317898836	0.01464957375875586	-0.01129348999999999	0.9508096500000001	0.8549460600000001	0.3810878828346246	0.05458321776189334	-0.2793188455765029	-0.3712009418624601	0.0871136731608713	-0.1433500687101159	0	0.1877832517758722	-0.1863282278507511	-0.3066986545839326	-1.019888207763322	-0.2033153876079156	-0.3374329237563754	0	-0.03177463864653965	0.04106551581976065	-0.00449842924191563
0.7599999999999998	-0.08216883499514628	-0.04746185733487174	0.01472470066931315	-0.01026795999999999	0.95158482	0.8644804300000001	0.3728526109872058	0.06464230928482835	-0.2694533616821624	-0.3608892387139742	0.09076033896724703	-0.1542598038653427	0	0.2327162100474701	-0.1939260106839631	-0.2931451903218278	-1.053237153815513	-0.1880014870474099	-0.3409914832477153	0	-0.02642744601553536	0.0454857478534687	0.001207467122149958
0.77	-0.08085723905463832	-0.04607766214701655	0.01359435268006308	-0.009499199999999985	0.95324851	0.87425408	0.3536780047712427	0.0669019765954099	-0.2639542149268929	-0.3500605103979848	0.09882145837124331	-0.1584104574042425	0	0.2630730227967035	-0.1927927942315162	-0.2847330124250256	-1.074600514789082	-0.1706166135285399	-0.3453650046855864	0	-0.03142364595264657	0.04225977655905954	0.01213047271381141
0.7799999999999998	-0.08156959208242867	-0.04471592831560975	0.01037411181131358	-0.008532259999999986	0.95482789	0.88410533	0.3363428562063608	0.06954960651316612	-0.2578629983841402	-0.338173584942254	0.1048971053553378	-0.1599747944420087	0	0.2942502678779425	-0.1912201539643665	-0.2787256627925556	-1.090403276138952	-0.1467289294507363	-0.3461096223583464	0	-0.03400204476762855	0.03955902527659085	0.02183627905288086
0.79	-0.08248736233337695	-0.04398663228615923	0.007875801394218115	-0.007514229999999983	0.95613984	0.89361617	0.319669504030711	0.07244462149349511	-0.254878949271745	-0.3263728899216789	0.1089945019174422	-0.1609147680396749	0	0.3279124521852459	-0.1916619980271429	-0.2745878843730148	-1.104101341976782	-0.1295685590298138	-0.3427141673762638	0	-0.03679035555347836	0.03688442897469378	0.03198232986046724
0.7999999999999998	-0.08234746545633094	-0.04138957464105608	0.004581724724255744	-0.006616529999999982	0.9576612800000001	0.90327746	0.3010627190448015	0.07341669571036273	-0.2492836908997597	-0.3136483724058026	0.1134650043205297	-0.1591045280729367	0	0.3555571342798205	-0.1874120527070971	-0.2700145670671534	-1.106793031335241	-0.1186323753296351	-0.3407832207875235	0	-0.04033360798367954	0.032719579451257	0.04290933539770841
0.8100000000000001	-0.0817054550036318	-0.03943681188804967	-0.001041566888405926	-0.005226899999999979	0.9588261	0.9132160300000001	0.2819871709103975	0.07564533682643035	-0.244966998778597	-0.3016738024491561	0.1218965206399768	-0.1574767310381009	0	0.3798695704110357	-0.1856432253892515	-0.2705983554418689	-1.105734501710277	-0.09239553445278202	-0.3432953138460905	0	-0.04317127737890745	0.02806093299826557	0.05434908760232483
0.8199999999999998	-0.08158283888489284	-0.03653077160745147	-0.0047518325537498	-0.004198319999999978	0.9599659	0.9226852200000001	0.2641362866272635	0.07594297340882655	-0.2405471711376766	-0.2897670516239189	0.1278734640188832	-0.1548910515821443	0	0.4064226225368492	-0.181323959081975	-0.2691538287995339	-1.100399474373225	-0.08129009273600224	-0.3432361265895627	0	-0.04687692030416902	0.02224501456881276	0.06534534483722543
